<?xml version="1.0" encoding="utf-8"?>
<!-- Generator: Adobe Illustrator 23.0.1, SVG Export Plug-In . SVG Version: 6.00 Build 0)  -->
<svg version="1.1" id="Layer_1" xmlns="http://www.w3.org/2000/svg" xmlns:xlink="http://www.w3.org/1999/xlink" x="0px" y="0px"
	 viewBox="0 0 600.3 214.8" style="enable-background:new 0 0 600.3 214.8;" xml:space="preserve">
<style type="text/css">
	.st0{fill:#4285F4;}
	.st1{fill:#EA4335;}
	.st2{fill:#FBBC05;}
	.st3{fill:#34A853;}
</style>
<g>
	<path class="st0" d="M130.8,183.6V210H0v-27.6l53.1-53.7c17.8-18.2,30.1-31.8,36.9-41c6.8-9.1,10.2-18.6,10.2-28.7
		c0-9-3.5-16.7-10.5-23.1c-7-6.4-16-9.6-27-9.6c-9.4,0-17.5,2.8-24.3,8.4c-6.8,5.6-11.2,12.4-13.2,20.4L0,45
		c4-12.6,11.7-23.3,23.1-32S47.9,0,63.3,0c18.6,0,34.1,5.7,46.5,17.1c12.4,11.4,18.6,25.4,18.6,42c0,19.8-10.9,41.2-32.7,64.2
		l-60,60.3H130.8z"/>
	<path class="st1" d="M157.2,107.4c0-31.2,7.7-56.9,23.1-77.1C195.7,10.1,215.5,0,239.7,0c24.2,0,44,10.2,59.4,30.6
		c15.4,20.2,23.1,45.8,23.1,76.8c0,30.8-7.7,56.5-23.1,77.1c-15.4,20.2-35.2,30.3-59.4,30.3c-24.2,0-44-10.1-59.4-30.3
		C164.9,163.9,157.2,138.2,157.2,107.4z M294,107.4c0-23.6-5-43-15-58.2c-9.8-15.2-22.9-22.8-39.3-22.8c-16.4,0-29.5,7.6-39.3,22.8
		c-10,15.2-15,34.6-15,58.2c0,23.6,5,43.1,15,58.5c9.8,15,22.9,22.5,39.3,22.5c16.4,0,29.5-7.6,39.3-22.8
		C289,150.2,294,130.8,294,107.4z"/>
	<path class="st2" d="M422.4,4.8V210h-27.6V39l-39.9,17.4L344.4,33l60.3-28.2H422.4z"/>
	<path class="st3" d="M523.8,135c-16.4,0-31.3-6.5-44.7-19.5c-13-13.4-19.5-29-19.5-46.8c0-18.6,7-34.6,21-48
		C494.6,6.9,511,0,529.8,0c19.8,0,36.5,6.8,50.1,20.4c13.6,13.6,20.4,29.7,20.4,48.3c0,16.6-6.7,35.5-20.1,56.7l-59.7,89.4
		l-22.2-15.3l50.7-70.2l-0.6-0.6C542,132.9,533.8,135,523.8,135z M572.4,68.4c0-11.6-4.2-21.5-12.6-29.7c-8.2-8.2-18.2-12.3-30-12.3
		c-11.8,0-21.8,4.1-30,12.3c-8.2,8.2-12.3,18.1-12.3,29.7c0,11.6,4.1,21.5,12.3,29.7c8.6,8.2,18.6,12.3,30,12.3
		c11.4,0,21.4-4.1,30-12.3C568.2,90.1,572.4,80.2,572.4,68.4z"/>
</g>
</svg>
