<?xml version="1.0" encoding="utf-8"?>
<!-- Generator: Adobe Illustrator 23.0.1, SVG Export Plug-In . SVG Version: 6.00 Build 0)  -->
<svg version="1.1" id="Layer_1" xmlns="http://www.w3.org/2000/svg" xmlns:xlink="http://www.w3.org/1999/xlink" x="0px" y="0px"
	 viewBox="0 0 1196.1 1073.5" style="enable-background:new 0 0 1196.1 1073.5;" xml:space="preserve">
<style type="text/css">
	.st0{fill:#4285F4;}
	.st1{fill:#EA4335;}
	.st2{fill:#FBBC05;}
	.st3{fill:#34A853;}
	.st4{fill:#9FC1F9;}
	.st5{font-family:'ProductSans-Regular';}
	.st6{font-size:144.1352px;}
	.st7{letter-spacing:2;}
	.st8{letter-spacing:1;}
</style>
<g>
	<path class="st0" d="M439,1042.3v26.4H308.2v-27.6l53.1-53.7c17.8-18.2,30.1-31.8,36.9-41c6.8-9.1,10.2-18.6,10.2-28.7
		c0-9-3.5-16.7-10.5-23.1c-7-6.4-16-9.6-27-9.6c-9.4,0-17.5,2.8-24.3,8.4c-6.8,5.6-11.2,12.4-13.2,20.4l-25.2-10.2
		c4-12.6,11.7-23.3,23.1-32s24.8-13,40.2-13c18.6,0,34.1,5.7,46.5,17.1c12.4,11.4,18.6,25.4,18.6,42c0,19.8-10.9,41.2-32.7,64.2
		l-60,60.3H439z"/>
	<path class="st1" d="M465.4,966.1c0-31.2,7.7-56.9,23.1-77.1c15.4-20.2,35.2-30.3,59.4-30.3c24.2,0,44,10.2,59.4,30.6
		c15.4,20.2,23.1,45.8,23.1,76.8c0,30.8-7.7,56.5-23.1,77.1c-15.4,20.2-35.2,30.3-59.4,30.3c-24.2,0-44-10.1-59.4-30.3
		C473.1,1022.6,465.4,996.9,465.4,966.1z M602.2,966.1c0-23.6-5-43-15-58.2c-9.8-15.2-22.9-22.8-39.3-22.8
		c-16.4,0-29.5,7.6-39.3,22.8c-10,15.2-15,34.6-15,58.2c0,23.6,5,43.1,15,58.5c9.8,15,22.9,22.5,39.3,22.5
		c16.4,0,29.5-7.6,39.3-22.8C597.2,1008.9,602.2,989.5,602.2,966.1z"/>
	<path class="st2" d="M730.6,863.5v205.2H703v-171l-39.9,17.4l-10.5-23.4l60.3-28.2H730.6z"/>
	<path class="st3" d="M832,993.7c-16.4,0-31.3-6.5-44.7-19.5c-13-13.4-19.5-29-19.5-46.8c0-18.6,7-34.6,21-48
		c14-13.8,30.4-20.7,49.2-20.7c19.8,0,36.5,6.8,50.1,20.4c13.6,13.6,20.4,29.7,20.4,48.3c0,16.6-6.7,35.5-20.1,56.7l-59.7,89.4
		l-22.2-15.3l50.7-70.2l-0.6-0.6C850.2,991.6,842,993.7,832,993.7z M880.6,927.1c0-11.6-4.2-21.5-12.6-29.7
		c-8.2-8.2-18.2-12.3-30-12.3c-11.8,0-21.8,4.1-30,12.3c-8.2,8.2-12.3,18.1-12.3,29.7c0,11.6,4.1,21.5,12.3,29.7
		c8.6,8.2,18.6,12.3,30,12.3c11.4,0,21.4-4.1,30-12.3C876.4,948.8,880.6,938.9,880.6,927.1z"/>
</g>
<g>
	<path class="st1" d="M680.9,97.6l38.2-38.2l2.5-16.1C652-20,541.3-12.9,478.6,58.2c-17.4,19.7-30.4,44.4-37.3,69.8l13.7-1.9
		l76.4-12.6l5.9-6c34-37.3,91.5-42.4,130.7-10.6L680.9,97.6z"/>
	<path class="st0" d="M773.5,126.9c-8.8-32.3-26.8-61.4-51.9-83.7L668,96.9c22.6,18.5,35.5,46.4,35,75.6v9.5
		c26.4,0,47.7,21.4,47.7,47.7c0,26.4-21.4,47.2-47.7,47.2h-95.6l-9.4,10.2v57.2l9.4,9H703c68.6,0.5,124.6-54.1,125.1-122.6
		C828.4,189.1,807.9,150.2,773.5,126.9"/>
	<path class="st3" d="M512,353.3h95.4v-76.4H512c-6.8,0-13.4-1.5-19.6-4.3l-13.5,4.2L440.4,315l-3.4,13
		C458.6,344.3,484.9,353.4,512,353.3"/>
	<path class="st2" d="M512,105.5c-68.6,0.4-123.8,56.3-123.4,124.9c0.2,38.3,18.1,74.3,48.5,97.7l55.4-55.4
		c-24-10.9-34.7-39.1-23.8-63.1c10.9-24,39.1-34.7,63.1-23.8c10.6,4.8,19.1,13.3,23.8,23.8l55.4-55.4
		C587.4,123.3,550.7,105.3,512,105.5"/>
</g>
<g>
	<title>Asset 1</title>
	<g>
		<g id="Layer_2-2_1_">
			<path class="st4" d="M558.2,483.4L558.2,483.4c20.3,0,36.7,16.4,36.7,36.7v102.7l0,0h-73.6l0,0V520c0-20.3,16.4-36.7,36.7-36.7
				C558,483.4,558.1,483.4,558.2,483.4z"/>
			<path class="st0" d="M523.8,622.2h-71c0,39.2,31.8,71,71,71c39.2,0,71-31.8,71-71H523.8z"/>
			<path class="st4" d="M688.3,660.9h196l-80.9-171.4c-4.6-9.8-16.2-14-26-9.4c-4.1,1.9-7.5,5.3-9.4,9.4L688.3,660.9z"/>
			<polygon class="st0" points="759,681.1 759,575.3 871.6,575.3 			"/>
			<path class="st4" d="M1120.2,480L1120.2,480c29.1,0,52.7,23.6,52.7,52.7c0,0,0,0,0,0V659l0,0h-105.3l0,0V532.6
				C1067.6,503.6,1091.2,480,1120.2,480z"/>
			<path class="st4" d="M1015.6,480L1015.6,480c29.1,0,52.7,23.6,52.7,52.7V659l0,0H963l0,0V532.6C963,503.6,986.5,480,1015.6,480z"
				/>
			<path class="st0" d="M1103.4,609.5L1103.4,609.5c21.2-21.2,55.6-21.2,76.7,0l0,0c21.2,21.2,21.2,55.6,0,76.7l0,0
				c-21.2,21.2-55.6,21.2-76.7,0l0,0C1082.2,665,1082.2,630.7,1103.4,609.5z"/>
			<text transform="matrix(1 0 0 1 1.392365e-04 618.8574)" class="st0 st5 st6">S</text>
			<text transform="matrix(1 0 0 1 78.9953 618.8574)" class="st0 st5 st6 st7">t</text>
			<text transform="matrix(1 0 0 1 132.8644 618.8574)" class="st0 st5 st6 st8">u</text>
			<text transform="matrix(1 0 0 1 213.1515 618.8574)" class="st0 st5 st6 st7">dy</text>
		</g>
	</g>
</g>
</svg>
