<?xml version="1.0" encoding="utf-8"?>
<!-- Generator: Adobe Illustrator 23.0.1, SVG Export Plug-In . SVG Version: 6.00 Build 0)  -->
<svg version="1.1" id="Layer_1" xmlns="http://www.w3.org/2000/svg" xmlns:xlink="http://www.w3.org/1999/xlink" x="0px" y="0px"
	 viewBox="0 0 1920 1080" style="enable-background:new 0 0 1920 1080;" xml:space="preserve">
<style type="text/css">
	.st0{fill:#424242;}
	.st1{fill:#4285F4;}
	.st2{fill:#EA4335;}
	.st3{fill:#FBBC05;}
	.st4{fill:#34A853;}
</style>
<g>
	<path class="st0" d="M419.3,717.5c-31.8,0-58.4-10.7-79.8-32.1c-21.2-21.4-31.8-48.1-31.8-80.1c0-32,10.6-58.6,31.8-79.8
		c21.2-21.6,47.8-32.4,79.8-32.4c32.4,0,58.7,11.7,78.9,35.1l-19.8,19.2c-15.4-18.6-35.1-27.9-59.1-27.9c-23.8,0-43.7,8-59.7,24
		c-15.8,15.8-23.7,36.4-23.7,61.8c0,25.4,7.9,46,23.7,61.8c16,16,35.9,24,59.7,24c25,0,46.7-10.5,65.1-31.5l20.1,19.5
		c-10.2,12.2-22.7,21.7-37.5,28.4C452.2,714.1,436.3,717.5,419.3,717.5z"/>
	<path class="st0" d="M556.7,497.9v214.8h-27.6V497.9H556.7z"/>
	<path class="st0" d="M580.4,639.2c0-22.6,7.1-41.3,21.3-56.1c14.4-14.8,32.5-22.2,54.3-22.2c21.8,0,39.8,7.4,54,22.2
		c14.4,14.8,21.6,33.5,21.6,56.1c0,22.8-7.2,41.5-21.6,56.1c-14.2,14.8-32.2,22.2-54,22.2c-21.8,0-39.9-7.4-54.3-22.2
		C587.5,680.5,580.4,661.8,580.4,639.2z M608,639.2c0,15.8,4.6,28.6,13.8,38.4c9.2,9.8,20.6,14.7,34.2,14.7c13.6,0,25-4.9,34.2-14.7
		c9.2-9.8,13.8-22.6,13.8-38.4c0-15.6-4.6-28.3-13.8-38.1c-9.4-10-20.8-15-34.2-15c-13.4,0-24.8,5-34.2,15
		C612.6,610.9,608,623.6,608,639.2z"/>
	<path class="st0" d="M884.3,712.7h-26.4v-20.4h-1.2c-4.2,7.2-10.7,13.2-19.4,18c-8.7,4.8-17.8,7.2-27.1,7.2
		c-18,0-31.9-5.1-41.6-15.5c-9.7-10.3-14.5-24.9-14.5-44v-92.4h27.6v90.6c0.6,24,12.7,36,36.3,36c11,0,20.2-4.4,27.6-13.3
		c7.4-8.9,11.1-19.5,11.1-32v-81.3h27.6V712.7z"/>
	<path class="st0" d="M977.9,717.5c-19.2,0-35.7-7.6-49.5-22.8c-13.6-15.4-20.4-33.9-20.4-55.5c0-21.6,6.8-40.1,20.4-55.5
		c13.8-15.2,30.3-22.8,49.5-22.8c10.8,0,20.6,2.3,29.5,6.9c8.9,4.6,15.8,10.7,20.6,18.3h1.2l-1.2-20.4v-67.8h27.6v214.8h-26.4v-20.4
		h-1.2c-4.8,7.6-11.7,13.7-20.6,18.3C998.5,715.2,988.7,717.5,977.9,717.5z M982.4,692.3c13.6,0,24.7-4.9,33.3-14.7
		c9-9.8,13.5-22.6,13.5-38.4c0-15.4-4.5-28.1-13.5-38.1c-8.8-10-19.9-15-33.3-15c-13.2,0-24.3,5-33.3,15c-9,10-13.5,22.7-13.5,38.1
		c0,15.6,4.5,28.3,13.5,38.1C958.1,687.3,969.2,692.3,982.4,692.3z"/>
	<path class="st0" d="M1121.6,620.6v92.1H1094V497.9h125.4v26.4h-97.8v70.5h88.2v25.8H1121.6z"/>
	<path class="st0" d="M1302.8,717.5c-21.6,0-39.4-7.4-53.4-22.2c-14-14.8-21-33.5-21-56.1c0-22.4,6.8-41,20.4-56
		c13.6-14.9,31-22.3,52.2-22.3c21.8,0,39.2,7,52,21.1c12.9,14.1,19.4,33.9,19.4,59.3l-0.3,3h-115.5c0.4,14.4,5.2,26,14.4,34.8
		c9.2,8.8,20.2,13.2,33,13.2c17.6,0,31.4-8.8,41.4-26.4l24.6,12c-6.6,12.4-15.8,22.1-27.5,29.1S1317.6,717.5,1302.8,717.5z
		 M1258.7,621.5h84.3c-0.8-10.2-5-18.6-12.5-25.3c-7.5-6.7-17.5-10.1-30.1-10.1c-10.4,0-19.4,3.2-26.9,9.6
		C1266,602.1,1261.1,610.7,1258.7,621.5z"/>
	<path class="st0" d="M1511.5,671.9c0,12.8-5.6,23.6-16.8,32.4c-11.2,8.8-25.3,13.2-42.3,13.2c-14.8,0-27.8-3.9-39-11.5
		c-11.2-7.7-19.2-17.9-24-30.5L1414,665c3.6,8.8,8.9,15.7,15.8,20.5c6.9,4.9,14.4,7.4,22.7,7.4c8.8,0,16.1-1.9,22-5.7
		c5.9-3.8,8.8-8.3,8.8-13.5c0-9.4-7.2-16.3-21.6-20.7l-25.2-6.3c-28.6-7.2-42.9-21-42.9-41.4c0-13.4,5.4-24.1,16.3-32.3
		c10.9-8.1,24.8-12.1,41.8-12.1c13,0,24.8,3.1,35.3,9.3c10.5,6.2,17.9,14.5,22.1,24.9l-24.6,10.2c-2.8-6.2-7.3-11-13.6-14.5
		c-6.3-3.5-13.4-5.3-21.2-5.3c-7.2,0-13.7,1.8-19.3,5.4c-5.7,3.6-8.6,8-8.6,13.2c0,8.4,7.9,14.4,23.7,18l22.2,5.7
		C1496.9,635,1511.5,649.7,1511.5,671.9z"/>
	<path class="st0" d="M1592.2,715.1c-12,0-22-3.7-29.8-11.1c-7.9-7.4-12-17.7-12.2-30.9v-82.2h-25.8v-25.2h25.8v-45h27.6v45h36v25.2
		h-36v73.2c0,9.8,1.9,16.5,5.7,20c3.8,3.5,8.1,5.3,12.9,5.3c2.2,0,4.3-0.2,6.5-0.8c2.1-0.5,4-1.1,5.8-2l8.7,24.6
		C1610.2,713.8,1601.8,715.1,1592.2,715.1z"/>
	<path class="st1" d="M790.7,1046.3v26.4H659.9v-27.6l53.1-53.7c17.8-18.2,30.1-31.8,36.9-41c6.8-9.1,10.2-18.6,10.2-28.7
		c0-9-3.5-16.7-10.5-23.1c-7-6.4-16-9.6-27-9.6c-9.4,0-17.5,2.8-24.3,8.4c-6.8,5.6-11.2,12.4-13.2,20.4l-25.2-10.2
		c4-12.6,11.7-23.3,23.1-32s24.8-13,40.2-13c18.6,0,34.1,5.7,46.5,17.1c12.4,11.4,18.6,25.4,18.6,42c0,19.8-10.9,41.2-32.7,64.2
		l-60,60.3H790.7z"/>
	<path class="st2" d="M817.1,970.1c0-31.2,7.7-56.9,23.1-77.1c15.4-20.2,35.2-30.3,59.4-30.3c24.2,0,44,10.2,59.4,30.6
		c15.4,20.2,23.1,45.8,23.1,76.8c0,30.8-7.7,56.5-23.1,77.1c-15.4,20.2-35.2,30.3-59.4,30.3c-24.2,0-44-10.1-59.4-30.3
		C824.7,1026.6,817.1,1000.9,817.1,970.1z M953.9,970.1c0-23.6-5-43-15-58.2c-9.8-15.2-22.9-22.8-39.3-22.8
		c-16.4,0-29.5,7.6-39.3,22.8c-10,15.2-15,34.6-15,58.2c0,23.6,5,43.1,15,58.5c9.8,15,22.9,22.5,39.3,22.5
		c16.4,0,29.5-7.6,39.3-22.8C948.9,1012.9,953.9,993.5,953.9,970.1z"/>
	<path class="st3" d="M1082.2,867.5v205.2h-27.6v-171l-39.9,17.4l-10.5-23.4l60.3-28.2H1082.2z"/>
	<path class="st4" d="M1183.6,997.7c-16.4,0-31.3-6.5-44.7-19.5c-13-13.4-19.5-29-19.5-46.8c0-18.6,7-34.6,21-48
		c14-13.8,30.4-20.7,49.2-20.7c19.8,0,36.5,6.8,50.1,20.4c13.6,13.6,20.4,29.7,20.4,48.3c0,16.6-6.7,35.5-20.1,56.7l-59.7,89.4
		l-22.2-15.3l50.7-70.2l-0.6-0.6C1201.8,995.6,1193.6,997.7,1183.6,997.7z M1232.2,931.1c0-11.6-4.2-21.5-12.6-29.7
		c-8.2-8.2-18.2-12.3-30-12.3c-11.8,0-21.8,4.1-30,12.3c-8.2,8.2-12.3,18.1-12.3,29.7c0,11.6,4.1,21.5,12.3,29.7
		c8.6,8.2,18.6,12.3,30,12.3c11.4,0,21.4-4.1,30-12.3C1228,952.8,1232.2,942.9,1232.2,931.1z"/>
</g>
<g>
	<path class="st2" d="M1032.5,101.6l38.2-38.2l2.5-16.1C1003.7-16,893-8.9,830.2,62.2C812.8,82,799.9,106.6,793,132l13.7-1.9
		l76.4-12.6l5.9-6c34-37.3,91.5-42.4,130.7-10.6L1032.5,101.6z"/>
	<path class="st1" d="M1125.2,130.9c-8.8-32.3-26.8-61.4-51.9-83.7l-53.6,53.6c22.6,18.5,35.5,46.4,35,75.6v9.5
		c26.4,0,47.7,21.4,47.7,47.7c0,26.4-21.4,47.2-47.7,47.2h-95.6l-9.4,10.2v57.2l9.4,9h95.6c68.6,0.5,124.6-54.1,125.1-122.6
		C1180.1,193.1,1159.6,154.2,1125.2,130.9"/>
	<path class="st4" d="M863.6,357.3h95.4v-76.4h-95.4c-6.8,0-13.4-1.5-19.6-4.3l-13.5,4.2L792,319l-3.4,13
		C810.3,348.3,836.6,357.4,863.6,357.3"/>
	<path class="st3" d="M863.6,109.5c-68.6,0.4-123.8,56.3-123.4,124.9c0.2,38.3,18.1,74.3,48.5,97.7l55.4-55.4
		c-24-10.9-34.7-39.1-23.8-63.1c10.9-24,39.1-34.7,63.1-23.8c10.6,4.8,19.1,13.3,23.8,23.8l55.4-55.4
		C939,127.3,902.4,109.3,863.6,109.5"/>
</g>
</svg>
