<?xml version="1.0" encoding="utf-8"?>
<!-- Generator: Adobe Illustrator 23.0.1, SVG Export Plug-In . SVG Version: 6.00 Build 0)  -->
<svg version="1.1" id="Layer_1" xmlns="http://www.w3.org/2000/svg" xmlns:xlink="http://www.w3.org/1999/xlink" x="0px" y="0px"
	 viewBox="0 0 1196.1 1073.5" style="enable-background:new 0 0 1196.1 1073.5;" xml:space="preserve">
<style type="text/css">
	.st0{fill:#EA4335;}
	.st1{fill:#4285F4;}
	.st2{fill:#34A853;}
	.st3{fill:#FBBC05;}
	.st4{fill:#9FC1F9;}
	.st5{font-family:'ProductSans-Regular';}
	.st6{font-size:144.1352px;}
	.st7{letter-spacing:2;}
	.st8{letter-spacing:1;}
	.st9{fill:#3C4043;}
</style>
<g>
	<path class="st0" d="M680.9,97.6l38.2-38.2l2.5-16.1C652-20,541.3-12.9,478.6,58.2c-17.4,19.7-30.4,44.4-37.3,69.8l13.7-1.9
		l76.4-12.6l5.9-6c34-37.3,91.5-42.4,130.7-10.6L680.9,97.6z"/>
	<path class="st1" d="M773.5,126.9c-8.8-32.3-26.8-61.4-51.9-83.7L668,96.9c22.6,18.5,35.5,46.4,35,75.6v9.5
		c26.4,0,47.7,21.4,47.7,47.7c0,26.4-21.4,47.2-47.7,47.2h-95.6l-9.4,10.2v57.2l9.4,9H703c68.6,0.5,124.6-54.1,125.1-122.6
		C828.4,189.1,807.9,150.2,773.5,126.9"/>
	<path class="st2" d="M512,353.3h95.4v-76.4H512c-6.8,0-13.4-1.5-19.6-4.3l-13.5,4.2L440.4,315l-3.4,13
		C458.6,344.3,484.9,353.4,512,353.3"/>
	<path class="st3" d="M512,105.5c-68.6,0.4-123.8,56.3-123.4,124.9c0.2,38.3,18.1,74.3,48.5,97.7l55.4-55.4
		c-24-10.9-34.7-39.1-23.8-63.1c10.9-24,39.1-34.7,63.1-23.8c10.6,4.8,19.1,13.3,23.8,23.8l55.4-55.4
		C587.4,123.3,550.7,105.3,512,105.5"/>
</g>
<g>
	<title>Asset 1</title>
	<g>
		<g id="Layer_2-2_1_">
			<path class="st4" d="M558.2,483.4L558.2,483.4c20.3,0,36.7,16.4,36.7,36.7v102.7l0,0h-73.6l0,0V520c0-20.3,16.4-36.7,36.7-36.7
				C558,483.4,558.1,483.4,558.2,483.4z"/>
			<path class="st1" d="M523.8,622.2h-71c0,39.2,31.8,71,71,71c39.2,0,71-31.8,71-71H523.8z"/>
			<path class="st4" d="M688.3,660.9h196l-80.9-171.4c-4.6-9.8-16.2-14-26-9.4c-4.1,1.9-7.5,5.3-9.4,9.4L688.3,660.9z"/>
			<polygon class="st1" points="759,681.1 759,575.3 871.6,575.3 			"/>
			<path class="st4" d="M1120.2,480L1120.2,480c29.1,0,52.7,23.6,52.7,52.7c0,0,0,0,0,0V659l0,0h-105.3l0,0V532.6
				C1067.6,503.6,1091.2,480,1120.2,480z"/>
			<path class="st4" d="M1015.6,480L1015.6,480c29.1,0,52.7,23.6,52.7,52.7V659l0,0H963l0,0V532.6C963,503.6,986.5,480,1015.6,480z"
				/>
			<path class="st1" d="M1103.4,609.5L1103.4,609.5c21.2-21.2,55.6-21.2,76.7,0l0,0c21.2,21.2,21.2,55.6,0,76.7l0,0
				c-21.2,21.2-55.6,21.2-76.7,0l0,0C1082.2,665,1082.2,630.7,1103.4,609.5z"/>
			<text transform="matrix(1 0 0 1 1.392365e-04 618.8574)" class="st1 st5 st6">S</text>
			<text transform="matrix(1 0 0 1 78.9953 618.8574)" class="st1 st5 st6 st7">t</text>
			<text transform="matrix(1 0 0 1 132.8644 618.8574)" class="st1 st5 st6 st8">u</text>
			<text transform="matrix(1 0 0 1 213.1515 618.8574)" class="st1 st5 st6 st7">dy</text>
		</g>
	</g>
</g>
<g>
	<path class="st9" d="M280.3,1043.2c6.2-6.2,18.5-18.6,36.9-37.3c18.4-18.7,31.2-32,38.4-39.8c10.2-11,17.1-19.6,20.7-25.8
		c3.6-6.2,5.4-13.7,5.4-22.5c0-5.8-1.5-11.4-4.5-16.8c-3-5.4-7.5-9.8-13.4-13c-5.9-3.3-13-5-21.1-5c-10.8,0-19.5,3.2-26.1,9.5
		c-6.6,6.3-10.9,13.2-12.9,20.5l-23.1-9.3c1.8-6.4,5.3-13,10.5-20c5.2-6.9,12.2-12.8,21-17.7c8.8-4.9,19.2-7.3,31.2-7.3
		c12.6,0,23.7,2.7,33.5,8.1c9.7,5.4,17.3,12.6,22.6,21.6s8.1,18.7,8.1,29.1c0,21-11,42.7-33,65.1l-61.5,61.8h96.9v24.3H280.3V1043.2
		z"/>
	<path class="st9" d="M478.1,1059.2c-12.5-9.5-22.1-22.4-28.8-38.7c-6.7-16.3-10-34.4-10-54.4c0-20,3.3-38.1,10-54.5
		c6.7-16.3,16.2-29.2,28.6-38.7c12.4-9.5,26.8-14.3,43.2-14.3c16.4,0,30.8,4.8,43.2,14.3c12.4,9.5,22,22.4,28.8,38.7
		c6.8,16.3,10.2,34.5,10.2,54.5c0,20-3.4,38.2-10.2,54.4c-6.8,16.3-16.5,29.2-29,38.7c-12.5,9.5-26.9,14.3-43,14.3
		C505,1073.5,490.6,1068.7,478.1,1059.2z M550.9,1038.2c8.4-7.3,14.9-17.3,19.5-29.8c4.6-12.6,6.9-26.7,6.9-42.3
		c0-15.6-2.3-29.7-6.9-42.3c-4.6-12.6-11.1-22.5-19.5-29.8c-8.4-7.3-18.3-11-29.7-11s-21.3,3.7-29.7,11
		c-8.4,7.3-14.9,17.3-19.4,29.8c-4.5,12.6-6.8,26.7-6.8,42.3c0,15.6,2.3,29.7,6.8,42.3c4.5,12.6,11,22.6,19.4,29.8
		c8.4,7.3,18.3,11,29.7,11S542.5,1045.5,550.9,1038.2z"/>
	<path class="st9" d="M677.8,899.2l-36,25.8l-13.2-19.5l58.5-42h16.2v205.2h-25.5V899.2z"/>
	<path class="st9" d="M782.5,1059.4l51.6-72.3l-0.6-0.6c-7,4.8-15.8,7.2-26.4,7.2c-10.4,0-20.6-2.9-30.6-8.7
		c-10-5.8-18.2-13.7-24.5-23.8c-6.3-10.1-9.5-21.3-9.5-33.8c0-12,3.2-23.3,9.5-33.8s14.8-18.9,25.5-25.4c10.7-6.4,22.3-9.6,35-9.6
		c13.6,0,25.7,3.3,36.4,9.9c10.7,6.6,19,15.1,24.9,25.6c5.9,10.5,8.8,21.6,8.8,33.2c0,11-2.3,21.6-6.8,31.6
		c-4.5,10.1-10.9,21.4-19.3,33.8l-53.7,80.7L782.5,1059.4z M834.8,965c6.9-3.9,12.3-9.2,16.3-15.9c4-6.7,6-14,6-22
		c0-8.2-2-15.6-6-22.4c-4-6.7-9.4-12-16.3-15.9c-6.9-3.9-14.4-5.9-22.3-5.9c-8,0-15.4,2-22.2,5.9c-6.8,3.9-12.2,9.2-16.2,15.9
		c-4,6.7-6,14.2-6,22.4c0,8,2,15.4,6,22c4,6.7,9.4,12,16.2,15.9c6.8,3.9,14.2,5.9,22.2,5.9C820.5,970.9,827.9,968.9,834.8,965z"/>
</g>
</svg>
