<svg xmlns="http://www.w3.org/2000/svg" viewBox="0 0 52.76 42.44"><defs><style>.cls-1{fill:#ea4335;}.cls-2{fill:#4285f4;}.cls-3{fill:#34a853;}.cls-4{fill:#fbbc05;}</style></defs><title>Google Cloud</title><g id="Layer_2" data-name="Layer 2"><g id="Layer_2-2" data-name="Layer 2"><path class="cls-1" d="M33.58,11.73l1.69,0,4.59-4.59.23-1.95a20.63,20.63,0,0,0-33.63,10A2.48,2.48,0,0,1,8,15.16l9.18-1.51s.47-.78.7-.73a11.45,11.45,0,0,1,15.67-1.19Z"/><path class="cls-2" d="M46.31,15.26a20.55,20.55,0,0,0-6.23-10l-6.5,6.5a11.49,11.49,0,0,1,4.27,8.93v1.14a5.74,5.74,0,1,1,0,11.47H26.38l-1.15,1.16V41.3l1.15,1.14H37.85a14.91,14.91,0,0,0,8.46-27.18Z"/><path class="cls-3" d="M14.91,42.44H26.37V33.26H14.91a5.65,5.65,0,0,1-2.36-.51l-1.65.5-4.6,4.6L5.9,39.4A14.82,14.82,0,0,0,14.91,42.44Z"/><path class="cls-4" d="M14.91,12.62a14.9,14.9,0,0,0-9,26.78l6.65-6.65a5.73,5.73,0,1,1,7.58-7.57l6.65-6.66A14.92,14.92,0,0,0,14.91,12.62Z"/></g></g></svg>