<?xml version="1.0" encoding="utf-8"?>
<!-- Generator: Adobe Illustrator 23.0.1, SVG Export Plug-In . SVG Version: 6.00 Build 0)  -->
<svg version="1.1" id="Layer_1" xmlns="http://www.w3.org/2000/svg" xmlns:xlink="http://www.w3.org/1999/xlink" x="0px" y="0px"
	 viewBox="0 0 1920 703" style="enable-background:new 0 0 1920 703;" xml:space="preserve">
<style type="text/css">
	.st0{fill:#9FC1F9;}
	.st1{fill:#4285F4;}
	.st2{font-family:'ProductSans-Regular';}
	.st3{font-size:132.3658px;}
	.st4{letter-spacing:1;}
	.st5{fill:#3C4043;}
	.st6{fill:#EA4335;}
	.st7{fill:#34A853;}
	.st8{fill:#FBBC05;}
	.st9{fill:#5F6368;}
</style>
<g>
	<title>Asset 1</title>
	<g>
		<g id="Layer_2-2_1_">
			<path class="st0" d="M1334.3,188.7L1334.3,188.7c18.6,0,33.7,15.1,33.7,33.7v94.3l0,0h-67.6l0,0v-94.4
				c0-18.6,15.1-33.7,33.7-33.7C1334.1,188.7,1334.2,188.7,1334.3,188.7z"/>
			<path class="st1" d="M1302.7,316.1h-65.2c0,36,29.2,65.2,65.2,65.2s65.2-29.2,65.2-65.2H1302.7z"/>
			<path class="st0" d="M1453.8,351.7h180l-74.3-157.4c-4.2-9-14.9-12.9-23.9-8.6c-3.8,1.7-6.9,4.9-8.6,8.6L1453.8,351.7z"/>
			<polygon class="st1" points="1518.7,370.2 1518.7,273.1 1622.1,273.1 			"/>
			<path class="st0" d="M1850.4,185.6L1850.4,185.6c26.7,0,48.4,21.7,48.4,48.4l0,0v116l0,0h-96.7l0,0V233.9
				C1802.1,207.2,1823.8,185.6,1850.4,185.6z"/>
			<path class="st0" d="M1754.3,185.6L1754.3,185.6c26.7,0,48.4,21.7,48.4,48.4v116l0,0H1706l0,0V233.9
				C1706,207.2,1727.6,185.6,1754.3,185.6z"/>
			<path class="st1" d="M1835,304.5L1835,304.5c19.5-19.5,51.1-19.5,70.4,0l0,0c19.5,19.5,19.5,51.1,0,70.4l0,0
				c-19.5,19.5-51.1,19.5-70.4,0l0,0C1815.5,355.5,1815.5,324,1835,304.5z"/>
			<text transform="matrix(1 0 0 1 821.6607 313.0786)" class="st1 st2 st3">S</text>
			<text transform="matrix(1 0 0 1 894.2056 313.0786)" class="st1 st2 st3 st4">t</text>
			<text transform="matrix(1 0 0 1 943.6754 313.0786)" class="st1 st2 st3">u</text>
			<text transform="matrix(1 0 0 1 1017.4073 313.0786)" class="st1 st2 st3 st4">dy</text>
		</g>
	</g>
</g>
<g>
	<path class="st5" d="M702.4,677.1c5.3-5.3,15.8-15.9,31.6-31.9c15.7-16,26.7-27.4,32.8-34c8.7-9.4,14.6-16.8,17.7-22.1
		c3.1-5.3,4.6-11.7,4.6-19.2c0-5-1.3-9.8-3.8-14.4c-2.6-4.6-6.4-8.4-11.5-11.1c-5-2.8-11.1-4.3-18-4.3c-9.2,0-16.7,2.7-22.3,8.1
		c-5.6,5.4-9.3,11.3-11,17.5l-19.8-8c1.5-5.5,4.5-11.1,9-17.1c4.4-5.9,10.4-10.9,18-15.1c7.5-4.2,16.4-6.2,26.7-6.2
		c10.8,0,20.3,2.3,28.7,6.9c8.3,4.6,14.8,10.8,19.3,18.5c4.5,7.7,6.9,16,6.9,24.9c0,18-9.4,36.5-28.2,55.7l-52.6,52.9h82.9v20.8
		H702.4V677.1z"/>
	<path class="st5" d="M871.6,690.8c-10.7-8.1-18.9-19.2-24.6-33.1s-8.6-29.4-8.6-46.5s2.8-32.6,8.6-46.6c5.7-13.9,13.9-25,24.5-33.1
		c10.6-8.1,22.9-12.2,36.9-12.2c14,0,26.3,4.1,36.9,12.2c10.6,8.1,18.8,19.2,24.6,33.1c5.8,13.9,8.7,29.5,8.7,46.6
		s-2.9,32.7-8.7,46.5c-5.8,13.9-14.1,25-24.8,33.1c-10.7,8.1-23,12.2-36.8,12.2C894.6,703,882.3,698.9,871.6,690.8z M933.9,672.8
		c7.2-6.2,12.7-14.8,16.7-25.5c3.9-10.8,5.9-22.8,5.9-36.2s-2-25.4-5.9-36.2c-3.9-10.8-9.5-19.2-16.7-25.5
		c-7.2-6.2-15.7-9.4-25.4-9.4s-18.2,3.2-25.4,9.4c-7.2,6.2-12.7,14.8-16.6,25.5c-3.8,10.8-5.8,22.8-5.8,36.2s2,25.4,5.8,36.2
		c3.8,10.8,9.4,19.3,16.6,25.5c7.2,6.2,15.7,9.4,25.4,9.4S926.7,679.1,933.9,672.8z"/>
	<path class="st5" d="M1042.4,554l-30.8,22.1l-11.3-16.7l50-35.9h13.9v175.5h-21.8V554z"/>
	<path class="st5" d="M1132,691l44.1-61.8l-0.5-0.5c-6,4.1-13.5,6.2-22.6,6.2c-8.9,0-17.6-2.5-26.2-7.4c-8.6-5-15.6-11.7-21-20.4
		s-8.1-18.2-8.1-28.9c0-10.3,2.7-19.9,8.1-28.9s12.7-16.2,21.8-21.7c9.2-5.5,19.1-8.2,29.9-8.2c11.6,0,22,2.8,31.1,8.5
		c9.2,5.6,16.3,12.9,21.3,21.9c5,9,7.5,18.5,7.5,28.4c0,9.4-2,18.5-5.8,27c-3.8,8.6-9.3,18.3-16.5,28.9l-45.9,69L1132,691z
		 M1176.7,610.2c5.9-3.3,10.5-7.9,13.9-13.6s5.1-12,5.1-18.8c0-7-1.7-13.3-5.1-19.2c-3.4-5.7-8-10.3-13.9-13.6
		c-5.9-3.3-12.3-5-19.1-5c-6.8,0-13.2,1.7-19,5c-5.8,3.3-10.4,7.9-13.9,13.6s-5.1,12.1-5.1,19.2c0,6.8,1.7,13.2,5.1,18.8
		c3.4,5.7,8,10.3,13.9,13.6c5.8,3.3,12.1,5,19,5C1164.5,615.3,1170.8,613.6,1176.7,610.2z"/>
</g>
<g>
	<path class="st6" d="M138.1,48.2h6.6l18.9-18.9l0.9-8c-35.2-31.1-88.9-27.7-120,7.5c-8.6,9.8-14.9,21.4-18.3,34
		c2.1-0.9,4.4-1,6.6-0.4l37.8-6.2c0,0,1.9-3.2,2.9-3c16.8-18.5,45.2-20.6,64.6-4.9L138.1,48.2z"/>
	<path class="st1" d="M190.6,62.8c-4.3-16-13.3-30.4-25.7-41.4l-26.6,26.6c11.2,9.2,17.6,23,17.3,37.4v4.7
		c13.1,0,23.6,10.6,23.6,23.6s-10.6,23.6-23.6,23.6h-47.3l-4.7,4.8v28.3l4.7,4.7h47.3c33.9,0.3,61.7-27,61.9-61
		C217.8,93.6,207.7,74.3,190.6,62.8z"/>
	<path class="st7" d="M61.1,174.9h47.3V137H61.1c-3.4,0-6.7-0.7-9.8-2.1l-6.6,2.1l-19.1,18.9l-1.7,6.6
		C34.7,170.6,47.7,174.9,61.1,174.9L61.1,174.9z"/>
	<path class="st8" d="M61.1,52.1C27.2,52.4-0.2,80,0,114c0.1,19,9,36.8,24,48.4l27.4-27.4c-11.9-5.4-17.2-19.4-11.8-31.3
		S59,86.5,70.9,91.9c5.2,2.4,9.4,6.6,11.8,11.8l27.4-27.4C98.4,61,80.3,52.1,61.1,52.1z"/>
	<g>
		<path class="st9" d="M343.5,148.5c-16.4,0.2-32.3-6.3-43.8-18c-11.9-11.2-18.6-26.9-18.4-43.3c-0.2-16.4,6.5-32.1,18.4-43.3
			c11.5-11.8,27.3-18.4,43.8-18.3c15.7-0.2,30.8,5.9,42,16.9l-11.8,12c-8.1-7.8-19-12.1-30.2-11.9c-11.8-0.1-23.1,4.7-31.2,13.3
			c-8.4,8.3-13,19.7-12.8,31.5c-0.1,11.7,4.5,22.9,12.8,31.1c17.1,17,44.6,17.4,62.1,0.7c5.2-5.7,8.4-13,9.1-20.6h-39.8v-17H400
			c0.6,3.4,0.8,6.9,0.7,10.4c0.7,14.5-4.5,28.6-14.5,39.2C375,142.7,359.5,149,343.5,148.5L343.5,148.5z M474.5,137.2
			c-15.7,15.1-40.5,15.1-56.2,0c-7.6-7.4-11.8-17.6-11.5-28.2c-0.3-10.6,3.9-20.8,11.5-28.2c15.7-15,40.5-15,56.2,0
			c7.6,7.4,11.8,17.6,11.5,28.2C486.3,119.6,482.1,129.8,474.5,137.2L474.5,137.2z M430.7,126.1c8.1,8.7,21.7,9.1,30.4,1
			c0.3-0.3,0.7-0.7,1-1c4.4-4.6,6.8-10.8,6.6-17.1c0.2-6.4-2.2-12.6-6.6-17.2c-8.3-8.7-22.2-9-30.9-0.7c-0.2,0.2-0.4,0.4-0.7,0.7
			c-4.4,4.6-6.8,10.8-6.6,17.2C423.8,115.4,426.2,121.5,430.7,126.1L430.7,126.1z M560.9,137.2c-15.7,15.1-40.5,15.1-56.2,0
			c-7.6-7.4-11.8-17.6-11.5-28.2c-0.3-10.6,3.9-20.8,11.5-28.2c15.7-15.1,40.5-15.1,56.2,0c7.6,7.4,11.8,17.6,11.5,28.2
			C572.7,119.6,568.6,129.8,560.9,137.2z M517.1,126.1c8.1,8.7,21.7,9.1,30.4,1c0.3-0.3,0.7-0.7,1-1c4.4-4.6,6.8-10.8,6.6-17.1
			c0.2-6.4-2.2-12.6-6.6-17.2c-8.3-8.7-22.2-9-30.9-0.7c-0.2,0.2-0.4,0.4-0.7,0.7c-4.4,4.6-6.8,10.8-6.6,17.2
			C510.2,115.4,512.6,121.5,517.1,126.1L517.1,126.1z M617.8,183.9c-8,0.3-15.8-2.2-22.1-7c-5.6-4.2-10.1-9.9-12.9-16.3l15.1-6.3
			c1.6,3.9,4.2,7.3,7.5,9.9c3.5,2.8,7.9,4.3,12.4,4.2c5.8,0.4,11.4-1.8,15.5-6c4-4.8,6-11,5.5-17.3v-5.7h-0.6
			c-5.1,6.1-12.8,9.4-20.8,9c-10.1,0-19.7-4.2-26.6-11.6c-7.4-7.3-11.5-17.4-11.4-27.8c-0.2-10.5,3.9-20.6,11.4-28
			c6.8-7.4,16.5-11.6,26.6-11.6c4.2,0,8.4,0.9,12.2,2.7c3.3,1.4,6.3,3.6,8.6,6.3h0.6v-6.3h16.5v70.7c0.9,11.3-2.9,22.5-10.6,30.9
			C637.5,180.6,627.8,184.3,617.8,183.9L617.8,183.9z M619,132.9c5.7,0.1,11.2-2.3,15-6.6c4.1-4.7,6.3-10.8,6-17
			c0.2-6.3-1.9-12.5-6-17.3c-3.8-4.3-9.3-6.8-15-6.6c-5.9-0.1-11.5,2.3-15.5,6.6c-4.4,4.6-6.8,10.8-6.6,17.2
			c-0.1,6.3,2.3,12.4,6.6,17C607.4,130.5,613.1,133,619,132.9z M684.6,30v116h-17.3V30L684.6,30z M732.1,148.5
			c-10.5,0.3-20.6-3.8-27.9-11.4c-7.4-7.4-11.5-17.6-11.2-28.1c-0.4-10.5,3.5-20.8,10.8-28.4c6.9-7.3,16.5-11.3,26.6-11.1
			c4.6,0,9.1,0.8,13.3,2.6c3.8,1.5,7.2,3.8,10.2,6.6c2.5,2.4,4.7,5.1,6.6,8c1.5,2.5,2.9,5.1,3.9,7.8l1.8,4.5L713,120.9
			c3.3,7.6,10.9,12.3,19.1,11.9c8,0,15.3-4.1,19.4-11l13.3,9c-3.4,4.8-7.7,9-12.7,12.1C746.2,146.7,739.2,148.6,732.1,148.5
			L732.1,148.5z M710,107.8l35.3-14.7c-1.1-2.6-3-4.7-5.5-6c-2.8-1.6-5.9-2.4-9.1-2.3c-5.4,0.1-10.5,2.4-14.3,6.3
			C711.9,95.4,709.5,101.5,710,107.8L710,107.8z M856.9,148.5c-30.2,0.5-55.1-23.5-55.6-53.7c0-0.7,0-1.5,0-2.2
			c-0.7-30.2,23.2-55.3,53.4-56c0.7,0,1.5,0,2.2,0c15.1-0.5,29.6,6,39.4,17.5l-9.6,9.3c-7.2-9-18.2-14.1-29.7-13.6
			c-11-0.2-21.7,4-29.5,11.8c-8.1,8.2-12.5,19.4-12,30.9c-0.5,11.5,3.9,22.7,12,30.9c7.8,7.8,18.5,12.1,29.5,11.8
			c12.9,0.1,25.1-5.6,33.2-15.5l9.6,9.6c-5,6-11.3,10.8-18.4,14C873.6,146.8,865.3,148.6,856.9,148.5z M925.4,146.1h-13.7V38.9h13.7
			V146.1z M947.8,81.6c15-14.9,39.2-14.9,54.2,0c7.1,7.5,10.9,17.5,10.6,27.9c0.3,10.3-3.5,20.4-10.6,27.9
			c-15,14.9-39.2,14.9-54.2,0c-7.1-7.5-10.9-17.5-10.6-27.9C936.9,99.1,940.7,89.1,947.8,81.6L947.8,81.6z M958,128.7
			c8.8,9.3,23.5,9.7,32.8,0.9c0.3-0.3,0.6-0.6,0.9-0.9c4.9-5.2,7.4-12.1,7.1-19.3c0.3-7.1-2.3-14-7.1-19.3
			c-8.8-9.3-23.5-9.7-32.8-0.9c-0.3,0.3-0.6,0.6-0.9,0.9c-4.9,5.2-7.4,12.1-7.1,19.3C950.7,116.5,953.2,123.4,958,128.7L958,128.7z
			 M1088.7,146.1h-13.3v-10.2h-0.4c-2.4,3.9-5.7,7-9.7,9.2c-4.1,2.4-8.8,3.7-13.6,3.7c-7.9,0.5-15.5-2.5-20.8-8.4
			c-5-6.4-7.6-14.3-7.1-22.4V72.8h13.7v42.6c0,13.7,6,20.5,18.1,20.5c5.4,0.2,10.6-2.3,13.9-6.6c3.6-4.5,5.5-10.1,5.4-15.9V72.8
			h13.7V146.1z M1135.4,148.5c-9.4,0-18.4-4.1-24.6-11.2c-6.9-7.6-10.6-17.6-10.3-27.8c-0.3-10.2,3.4-20.2,10.3-27.8
			c6.2-7.2,15.1-11.2,24.6-11.2c5.2-0.1,10.4,1.2,15,3.6c4.1,2,7.5,5.1,10,9h0.6l-0.6-10.2V38.9h13.7v107.2h-13.3v-10.2h-0.6
			c-2.5,3.8-5.9,6.9-10,9C1145.7,147.3,1140.6,148.5,1135.4,148.5z M1137.7,135.9c6.3,0.1,12.3-2.5,16.5-7.2
			c4.7-5.3,7.1-12.3,6.6-19.3c0.4-7.1-2-14-6.6-19.3c-8.3-9.2-22.5-9.8-31.7-1.5c-0.5,0.5-1,1-1.5,1.5c-4.7,5.3-7.1,12.2-6.6,19.3
			c-0.4,7,2,14,6.6,19.3C1125.2,133.4,1131.3,136,1137.7,135.9z"/>
	</g>
</g>
</svg>
