<svg xmlns="http://www.w3.org/2000/svg" viewBox="0 0 268.45 50.25"><defs><style>.cls-1{fill:#9fc1f9;}.cls-2,.cls-3{fill:#4285f4;}.cls-3{font-size:32.35px;font-family:ProductSans-Regular, Product Sans;letter-spacing:0em;}.cls-4{letter-spacing:0.02em;}.cls-5{letter-spacing:0.01em;}.cls-6{letter-spacing:0.02em;}</style></defs><title>Asset 1</title><g id="Layer_2" data-name="Layer 2"><g id="Layer_2-2" data-name="Layer 2"><path class="cls-1" d="M125.28,1.15h0a8.23,8.23,0,0,1,8.23,8.23V32.43a0,0,0,0,1,0,0H117a0,0,0,0,1,0,0V9.38A8.23,8.23,0,0,1,125.28,1.15Z"/><path class="cls-2" d="M117.57,32.3H101.63a15.94,15.94,0,0,0,31.88,0Z"/><path class="cls-1" d="M154.48,41h44L180.32,2.52a4.39,4.39,0,0,0-7.95,0Z"/><polygon class="cls-2" points="170.36 45.52 170.36 21.79 195.62 21.79 170.36 45.52"/><path class="cls-1" d="M251.43.39h0a11.82,11.82,0,0,1,11.82,11.82V40.58a0,0,0,0,1,0,0H239.62a0,0,0,0,1,0,0V12.21A11.82,11.82,0,0,1,251.43.39Z"/><path class="cls-1" d="M227.95.39h0a11.82,11.82,0,0,1,11.82,11.82V40.58a0,0,0,0,1,0,0H216.13a0,0,0,0,1,0,0V12.21A11.82,11.82,0,0,1,227.95.39Z"/><rect class="cls-2" x="244.09" y="25.89" width="24.36" height="24.36" rx="12.18" transform="translate(48.14 192.36) rotate(-45)"/><text class="cls-3" transform="translate(0 31.56)">S<tspan class="cls-4" x="17.73" y="0">t</tspan><tspan class="cls-5" x="29.82" y="0">u</tspan><tspan class="cls-6" x="47.84" y="0">dy</tspan></text></g></g></svg>