<svg xmlns="http://www.w3.org/2000/svg" xmlns:xlink="http://www.w3.org/1999/xlink" viewBox="0 0 944 210.84"><defs><style>.cls-1,.cls-10,.cls-11,.cls-12,.cls-14,.cls-16,.cls-17,.cls-18,.cls-3,.cls-6,.cls-7,.cls-9{fill:none;}.cls-2{fill:#f1f3f4;}.cls-10,.cls-11,.cls-12,.cls-3,.cls-6,.cls-7,.cls-9{stroke:#34a853;}.cls-10,.cls-11,.cls-12,.cls-14,.cls-16,.cls-17,.cls-18,.cls-3,.cls-6,.cls-7,.cls-9{stroke-miterlimit:10;}.cls-3{stroke-width:8.71px;}.cls-4{fill:#92dda6;}.cls-5{fill:#34a853;}.cls-6{stroke-width:5.76px;}.cls-7{stroke-width:1.78px;}.cls-8{fill:#4285f4;}.cls-9{stroke-width:1.89px;}.cls-10{stroke-width:1.91px;}.cls-11{stroke-width:1.75px;}.cls-12{stroke-width:1.78px;}.cls-13{fill:#d2e3fc;}.cls-14,.cls-18{stroke:#4285f4;}.cls-14,.cls-16{stroke-width:3.2px;}.cls-15{clip-path:url(#clip-path);}.cls-16,.cls-17{stroke:#d2e3fc;}.cls-17{stroke-width:3.7px;}.cls-18{stroke-width:3.6px;}</style><clipPath id="clip-path"><path class="cls-1" d="M148,142a24.19,24.19,0,0,0-26.39-13.48l-10,4.41a23.74,23.74,0,0,0-7.22,29,24.16,24.16,0,0,0,32.22,11.62A23.82,23.82,0,0,0,148,142Z"/></clipPath></defs><title>Asset 2</title><g id="Layer_2" data-name="Layer 2"><g id="Layer_2-2" data-name="Layer 2"><rect class="cls-2" x="451.13" y="-282.03" width="77.49" height="908.26" transform="translate(661.97 -317.77) rotate(90)"/><path class="cls-3" d="M196.67,122.23V102.37a20.64,20.64,0,1,0-41.28,0v20.51"/><rect class="cls-4" x="179.92" y="117.69" width="32.44" height="40.43" rx="5.64"/><path class="cls-5" d="M192.13,152.19h9a4.88,4.88,0,0,0,4.88-4.88V127H187.25a.13.13,0,0,0-.12.12V147.2A5,5,0,0,0,192.13,152.19Z"/><rect class="cls-4" x="140.23" y="117.69" width="31.56" height="40.43" rx="4.84"/><path class="cls-5" d="M194.22,124.83h-2a2,2,0,0,1,3.92,0Z"/><path class="cls-5" d="M199.63,124.76h-2a2,2,0,0,1,3.92,0Z"/><path class="cls-6" d="M550.34,131.8a12.58,12.58,0,0,1,12.58,12.58h0A12.58,12.58,0,0,1,550.34,157"/><path class="cls-4" d="M512.91,120.13h40.67a0,0,0,0,1,0,0v44.63a11.38,11.38,0,0,1-11.38,11.38H524.29a11.38,11.38,0,0,1-11.38-11.38V120.13a0,0,0,0,1,0,0Z"/><circle class="cls-5" cx="525.04" cy="156.44" r="1.96"/><circle class="cls-5" cx="518.37" cy="156.44" r="1.96"/><path class="cls-7" d="M509.27,161.8h18.52c14,0,12-10.83,12.08-17.33v-9.05"/><line class="cls-7" x1="542.64" y1="135.68" x2="536.96" y2="135.68"/><path class="cls-5" d="M75.36,151.26h-53l-.7,5.38c0,7.92,3.41,13.63,8.81,17.29,4.84,3.27,11.29,2.85,18.39,2.85s13.54.42,18.38-2.85c5.41-3.66,8.81-9.37,8.81-17.29Z"/><polygon class="cls-8" points="50.57 151.25 50.57 151.26 50.57 151.26 50.57 151.25"/><path class="cls-4" d="M69.66,107.61h0c-1-2.54-9.86-4.53-20.7-4.53s-19.74,2-20.7,4.53l-5.88,43.65h53Z"/><ellipse class="cls-5" cx="50.16" cy="106.44" rx="1.54" ry="0.49"/><ellipse class="cls-5" cx="54.28" cy="107.83" rx="1.54" ry="0.49"/><ellipse class="cls-5" cx="46.05" cy="107.83" rx="1.54" ry="0.49"/><ellipse class="cls-5" cx="50.16" cy="109.35" rx="1.54" ry="0.49"/><path class="cls-5" d="M63.92,133.37v.54H61.08l-.18-1.37-.35,1.37H55.79l-.48-1-.35,1h-5.6v-.54c0-.92.26-3.74.78-4.24a2.91,2.91,0,0,1,2.13-.77H61a2.91,2.91,0,0,1,2.13.77C63.66,129.63,63.92,132.45,63.92,133.37Z"/><path class="cls-9" d="M62.23,126.32a2,2,0,0,0-4,0"/><path class="cls-9" d="M55,126.34v0a2,2,0,0,0-4,0"/><path class="cls-4" d="M363,134.93v32.72H297.3V134.93a4.85,4.85,0,0,1,4.85-4.85h56A4.85,4.85,0,0,1,363,134.93Z"/><path class="cls-5" d="M371.59,176.76l-83.26-.68a4.72,4.72,0,0,1-4.68-4.72h0a4.72,4.72,0,0,1,4.76-4.72l83.26.67a4.73,4.73,0,0,1,4.68,4.73h0A4.72,4.72,0,0,1,371.59,176.76Z"/><circle class="cls-5" cx="351.74" cy="143.08" r="1.83"/><circle class="cls-5" cx="343.67" cy="143.08" r="1.83"/><line class="cls-10" x1="357.83" y1="149.83" x2="330.84" y2="149.83"/><path class="cls-5" d="M339.32,150.4v7.65a9,9,0,0,1-5.95-2.22,7.3,7.3,0,0,1-2.52-5.35Z"/><rect class="cls-5" x="338.46" y="150.26" width="8.27" height="7.75"/><path class="cls-4" d="M378.19,55H341.37A36.82,36.82,0,0,0,415,55Z"/><polygon class="cls-5" points="340.19 89.63 340.19 54.96 377.33 54.96 340.19 89.63"/><circle class="cls-5" cx="395.24" cy="71.58" r="2.37"/><circle class="cls-5" cx="405.23" cy="71.93" r="2.17"/><path class="cls-11" d="M375.09,66.72a10.27,10.27,0,0,0,10.38,10.75c15.87,0-.41,0,26.24-.19"/><path class="cls-11" d="M398.48,67.9v.8a4.82,4.82,0,1,1-9.64,0v-.8Z"/><path class="cls-11" d="M409,67.9v1.31a4.82,4.82,0,1,1-9.63,0V67.9Z"/><line class="cls-11" x1="379.43" y1="67.51" x2="409.81" y2="67.51"/><rect class="cls-5" x="803.96" y="109.01" width="44.93" height="67.74" rx="4.85"/><path class="cls-4" d="M835.17,170.43H804V112.84h31.21a4.06,4.06,0,0,1,4.06,4.06v49.47A4.06,4.06,0,0,1,835.17,170.43Z"/><path class="cls-5" d="M805.17,141.78h-2.33a2.33,2.33,0,1,1,4.65,0Z"/><path class="cls-5" d="M823.57,147.88v2.32a7,7,0,0,1-6.13,7,6.84,6.84,0,0,1-7.5-6.78v-2.56s0,0,0,0h13.58Z"/><path class="cls-5" d="M812.63,141.63l-2.33,0v0a2.33,2.33,0,0,1,4.65,0Z"/><path class="cls-12" d="M810,138.78v.82a4.92,4.92,0,0,1-9.83,0v-.82Z"/><path class="cls-12" d="M820.71,138.78v1.34a4.92,4.92,0,0,1-9.83,0v-1.34Z"/><path class="cls-13" d="M413.32,116.38H399.38a1.74,1.74,0,0,0-1.75,1.74v3.49a1.74,1.74,0,0,0,1.75,1.74v41.82a7,7,0,1,0,13.94,0V123.35a1.74,1.74,0,0,0,1.74-1.74v-3.49A1.74,1.74,0,0,0,413.32,116.38Z"/><path class="cls-13" d="M434.22,116.38H420.28a1.74,1.74,0,0,0-1.74,1.74v3.49a1.74,1.74,0,0,0,1.74,1.74v41.82a7,7,0,0,0,13.94,0V123.35a1.74,1.74,0,0,0,1.75-1.74v-3.49A1.74,1.74,0,0,0,434.22,116.38Z"/><path class="cls-13" d="M497.05,107.67H483.12a1.74,1.74,0,0,0-1.75,1.74v3.48a1.75,1.75,0,0,0,1.75,1.75v41.81a7,7,0,1,0,13.93,0V114.64a1.75,1.75,0,0,0,1.75-1.75v-3.48A1.74,1.74,0,0,0,497.05,107.67Z"/><path class="cls-8" d="M402,140.77v24.4a4.36,4.36,0,0,0,8.71,0v-24.4Z"/><path class="cls-8" d="M422.9,151.23v13.94a4.36,4.36,0,0,0,8.71,0V151.23Z"/><path class="cls-8" d="M485.73,128.58v27.87a4.36,4.36,0,1,0,8.71,0V128.58Z"/><path class="cls-14" d="M390.7,173.88V131.19a2.61,2.61,0,0,1,2.62-2.61h67.87a2.61,2.61,0,0,1,2.61,2.61v42.69"/><path class="cls-13" d="M151.82,140.23a28.41,28.41,0,0,0-31-15.84l-9.29-20.14.69-.32a1.51,1.51,0,0,0,.75-2l-.1-.21a1.53,1.53,0,0,0-2-.75l-12.69,5.79a1.52,1.52,0,0,0-.75,2l.1.2a1.54,1.54,0,0,0,2,.76l.37-.17,9.23,20a27.91,27.91,0,0,0-8.49,34.1,28.39,28.39,0,0,0,37.87,13.65A28,28,0,0,0,151.82,140.23Z"/><g class="cls-15"><path class="cls-8" d="M168.77,153.14c-13.68,0,1.11-2-12.56-2L86.72,151l9.45,28.35,56,1.93S182.45,153.17,168.77,153.14Z"/></g><path class="cls-13" d="M730.13,106V174.2A1.83,1.83,0,0,1,728.3,176H717a1.83,1.83,0,0,1-1.83-1.83V106a1.83,1.83,0,0,1,1.83-1.84H728.3A1.83,1.83,0,0,1,730.13,106Z"/><path class="cls-8" d="M715.05,118.5v-2.68h15v2.68Z"/><path class="cls-8" d="M715.05,111.71V109h15v2.68Z"/><path class="cls-13" d="M767.93,104.69l13.25,66.95a1.84,1.84,0,0,1-1.44,2.16L768.67,176a1.84,1.84,0,0,1-2.16-1.45l-13.25-66.95a1.83,1.83,0,0,1,1.44-2.15l11.07-2.19A1.84,1.84,0,0,1,767.93,104.69Z"/><path class="cls-8" d="M755.66,119.92l-.52-2.63,14.67-2.91.52,2.63Z"/><path class="cls-8" d="M754.35,113.26l-.53-2.63,14.67-2.91.52,2.63Z"/><path class="cls-13" d="M749.74,106V174.2A1.83,1.83,0,0,1,747.9,176H736.62a1.84,1.84,0,0,1-1.84-1.83V106a1.84,1.84,0,0,1,1.84-1.84H747.9A1.84,1.84,0,0,1,749.74,106Z"/><path class="cls-8" d="M734.78,118.45v-5.12h15v5.12Z"/><line class="cls-16" x1="470.14" y1="83.81" x2="477.42" y2="56.7"/><polyline class="cls-14" points="459.83 81.26 445.5 70.26 459.83 59.26"/><polyline class="cls-14" points="487.39 81.26 501.72 70.26 487.39 59.26"/><path class="cls-5" d="M687.75,144.67l-37.13.37-.22-21.72a18.57,18.57,0,0,1,37.14-.37ZM658.9,136.6l20.41-.21L679.18,123a10.21,10.21,0,1,0-20.42.2Z"/><path class="cls-4" d="M642,138.84a2.17,2.17,0,0,1,2.16-2.19l51.05-.42A1.78,1.78,0,0,1,697,138l.37,37.32a1.78,1.78,0,0,1-1.76,1.79l-51.06.42a2.18,2.18,0,0,1-2.19-2.16Z"/><path class="cls-5" d="M677.18,169.82h0a4.88,4.88,0,0,1-4.87-4.87V153.13h9.74V165A4.88,4.88,0,0,1,677.18,169.82Z"/><path class="cls-12" d="M682.63,149.69a1.93,1.93,0,1,0-3.86,0"/><path class="cls-12" d="M675.59,149.71v0a1.93,1.93,0,0,0-3.86,0"/><line class="cls-17" y1="48.66" x2="52.53" y2="48.66"/><line class="cls-17" x1="18.32" y1="59.76" x2="49.78" y2="59.76"/><line class="cls-17" x1="91.55" y1="59.76" x2="107.94" y2="59.76"/><line class="cls-17" x1="60.03" y1="59.76" x2="82.34" y2="59.76"/><line class="cls-17" x1="63.49" y1="48.66" x2="107.94" y2="48.66"/><line class="cls-17" x1="18.32" y1="71.41" x2="34.21" y2="71.41"/><line class="cls-17" x1="43.42" y1="71.41" x2="50.15" y2="71.41"/><line class="cls-17" x1="59.99" y1="71.41" x2="107.94" y2="71.41"/><line class="cls-18" x1="675.31" y1="24.37" x2="700.7" y2="24.37"/><line class="cls-18" x1="707.37" y1="24.37" x2="756.77" y2="24.37"/><line class="cls-18" x1="690.38" y1="12.43" x2="733.29" y2="12.43"/><line class="cls-18" x1="694.11" y1="35.82" x2="709.84" y2="35.82"/><line class="cls-18" x1="720.82" y1="35.82" x2="752.19" y2="35.82"/><rect class="cls-8" x="767.67" y="42.9" width="8.22" height="39.31" transform="translate(212.57 598.13) rotate(-48.4)"/><path class="cls-13" d="M737.13,0a32.11,32.11,0,1,0,32.11,32.1A32.1,32.1,0,0,0,737.13,0Zm0,57.79A25.69,25.69,0,1,1,762.82,32.1,25.69,25.69,0,0,1,737.13,57.79Z"/></g></g></svg>