<?xml version="1.0" encoding="utf-8"?>
<!-- Generator: Adobe Illustrator 23.0.1, SVG Export Plug-In . SVG Version: 6.00 Build 0)  -->
<svg version="1.1" id="Layer_1" xmlns="http://www.w3.org/2000/svg" xmlns:xlink="http://www.w3.org/1999/xlink" x="0px" y="0px"
	 viewBox="0 0 3390 1276.2" style="enable-background:new 0 0 3390 1276.2;" xml:space="preserve">
<style type="text/css">
	.st0{fill:#EA4335;}
	.st1{fill:#4285F4;}
	.st2{fill:#FBBC04;}
	.st3{fill:#0F9D58;}
	.st4{fill:#676C72;}
</style>
<g>
	<g>
		<g>
			<path class="st0" d="M1390,317.6l189.1-109.2c44.5-25.7,59.8-82.6,34.1-127.1c-25.7-44.5-82.6-59.8-127.1-34.1l-326.8,188.7
				L1390,317.6z"/>
		</g>
		<g>
			<path class="st1" d="M1532.5,598.2c32.2,0,63.4-16.7,80.7-46.5c25.7-44.5,10.4-101.4-34.1-127.1l-326.8-188.7
				c-44.5-25.7-101.4-10.4-127.1,34.1c-25.7,44.5-10.4,101.4,34.1,127.1L1486,585.7C1500.7,594.2,1516.7,598.2,1532.5,598.2z"/>
		</g>
		<g>
			<path class="st2" d="M1857.5,598.2c15.8,0,31.8-4,46.4-12.5l326.8-188.7L2003,313.7l-192.1,110.9
				c-44.5,25.7-59.8,82.6-34.1,127.1C1794.1,581.5,1825.4,598.2,1857.5,598.2z"/>
		</g>
		<g>
			<path class="st3" d="M2184.2,409.5c32.2,0,63.4-16.7,80.7-46.5c25.7-44.5,10.4-101.4-34.1-127.1L1904,47.2
				c-44.5-25.7-101.4-10.5-127.1,34.1c-25.7,44.5-10.4,101.4,34.1,127.1l326.8,188.7C2152.4,405.5,2168.4,409.5,2184.2,409.5z"/>
		</g>
	</g>
</g>
<g>
	<path class="st4" d="M1055.5,1194.9V980.1h65.7c32.8,0,59.1,9.9,79.1,29.7c19.9,19.8,29.9,45.7,29.9,77.7c0,32.2-10,58.2-29.9,77.9
		c-19.9,19.7-46.3,29.5-79.1,29.5H1055.5z M1083.1,1006.5v162h38.1c25,0,44.7-7.1,59.1-21.5c14.4-14.3,21.6-34.1,21.6-59.5
		c0-25.2-7.2-45-21.6-59.4c-14.4-14.4-34.1-21.6-59.1-21.6H1083.1z"/>
	<path class="st4" d="M1395.4,1137.6c0,18.8-6.9,33.9-20.7,45.3c-14,11.2-31,16.8-51,16.8c-17.8,0-33.5-5.2-47.1-15.6
		c-13.6-10.4-23-24.6-28.2-42.6l26.4-10.8c1.8,6.4,4.3,12.2,7.5,17.4c3.2,5.2,6.9,9.7,11.3,13.3c4.3,3.7,9,6.6,14.3,8.7
		c5.2,2.1,10.7,3.2,16.5,3.2c12.6,0,22.9-3.2,30.9-9.8c8-6.5,12-15.2,12-25.9c0-9-3.3-16.7-9.9-23.1c-6.2-6.2-17.8-12.2-34.8-18
		c-17.2-6.2-27.9-10.4-32.1-12.6c-22.8-11.6-34.2-28.7-34.2-51.3c0-15.8,6.3-29.3,18.9-40.5c12.8-11.2,28.5-16.8,47.1-16.8
		c16.4,0,30.6,4.2,42.6,12.6c12,8.2,20,18.5,24,30.9l-25.8,10.8c-2.4-8-7.2-14.6-14.3-20c-7.1-5.3-15.8-7.9-25.9-7.9
		c-10.8,0-19.9,3-27.3,9c-7.4,5.6-11.1,12.9-11.1,21.9c0,7.4,2.9,13.8,8.7,19.2c6.4,5.4,20.3,11.8,41.7,19.2
		c21.8,7.4,37.4,16.5,46.6,27.1C1390.8,1108.9,1395.4,1122,1395.4,1137.6z"/>
	<path class="st4" d="M1529.8,1199.7c-31.8,0-58.4-10.7-79.8-32.1c-21.2-21.4-31.8-48.1-31.8-80.1c0-32,10.6-58.6,31.8-79.8
		c21.2-21.6,47.8-32.4,79.8-32.4c32.4,0,58.7,11.7,78.9,35.1l-19.8,19.2c-15.4-18.6-35.1-27.9-59.1-27.9c-23.8,0-43.7,8-59.7,24
		c-15.8,15.8-23.7,36.4-23.7,61.8c0,25.4,7.9,46,23.7,61.8c16,16,35.9,24,59.7,24c25,0,46.7-10.5,65.1-31.5l20.1,19.5
		c-10.2,12.2-22.7,21.7-37.5,28.3C1562.7,1196.4,1546.8,1199.7,1529.8,1199.7z"/>
	<path class="st4" d="M1670.8,1108v86.9h-18V981.6h72.7c22.2,0,39.7,5.7,52.5,17c12.8,11.3,19.3,26.9,19.3,46.7
		c0,20-6.2,35.5-18.5,46.4c-12.4,10.9-30.2,16.3-53.7,16.3H1670.8z M1670.8,1092.8h54.6c17.5,0,30.8-4.2,40-12.5
		c9.2-8.3,13.8-19.9,13.8-34.8c0-14.8-4.6-26.5-13.7-35.3c-9.1-8.8-22.1-13.2-38.9-13.4h-55.8V1092.8z"/>
	<path class="st4" d="M1955.3,1092.7h-99.8v87h114.7v15.2h-132.7V981.6h132v15.2h-114v80.6h99.8V1092.7z"/>
	<path class="st4" d="M2128.9,1142.5c0-11.8-4.2-21.2-12.5-28.1c-8.3-6.9-23.5-13.4-45.6-19.6c-22.1-6.2-38.2-13-48.3-20.3
		c-14.5-10.3-21.7-23.9-21.7-40.7c0-16.3,6.7-29.6,20.1-39.8c13.4-10.2,30.6-15.3,51.5-15.3c14.2,0,26.8,2.7,38,8.2
		c11.2,5.5,19.8,13.1,26,22.9c6.2,9.8,9.2,20.7,9.2,32.7h-18.2c0-14.6-5-26.3-14.9-35.2c-10-8.9-23.3-13.3-40.1-13.3
		c-16.3,0-29.3,3.6-39,10.9s-14.5,16.8-14.5,28.5c0,10.9,4.3,19.7,13,26.6c8.7,6.8,22.6,12.9,41.7,18.1
		c19.1,5.2,33.6,10.7,43.5,16.3c9.9,5.6,17.3,12.3,22.3,20.1c5,7.8,7.5,17,7.5,27.7c0,16.8-6.7,30.3-20.1,40.4
		c-13.4,10.2-31.1,15.2-53.1,15.2c-15,0-28.8-2.7-41.4-8.1c-12.5-5.4-22.1-12.9-28.6-22.6c-6.5-9.7-9.7-20.8-9.7-33.3h18
		c0,15,5.6,26.9,16.8,35.6c11.2,8.7,26.2,13,44.8,13c16.6,0,29.9-3.7,40-11C2123.8,1164.3,2128.9,1154.6,2128.9,1142.5z"/>
	<path class="st4" d="M2332.8,981.6v145.6c-0.1,14.4-3.3,26.9-9.5,37.5c-6.3,10.6-15.1,18.8-26.4,24.5c-11.4,5.7-24.4,8.6-39.2,8.6
		c-22.5,0-40.5-6.1-54-18.4c-13.5-12.3-20.5-29.2-21-50.9V981.6h17.9v144.3c0,18,5.1,31.9,15.4,41.8c10.3,9.9,24.2,14.9,41.7,14.9
		s31.5-5,41.7-14.9c10.2-10,15.3-23.8,15.3-41.6V981.6H2332.8z"/>
</g>
</svg>
