<svg id="Layer_1" data-name="Layer 1" xmlns="http://www.w3.org/2000/svg" viewBox="0 0 1164.64 791.19"><defs><style>.cls-1{fill:#ea4335;}.cls-2{fill:#4285f4;}.cls-3{fill:#fbbc04;}.cls-4{fill:#0f9d58;}.cls-5{isolation:isolate;}.cls-6{fill:#676c72;}</style></defs><title>DSC PESU Small</title><path class="cls-1" d="M277.27,282.89l189.1-109.2a93.05,93.05,0,0,0-93-161.2L46.57,201.19Z"/><path class="cls-2" d="M419.77,563.49a93,93,0,0,0,46.6-173.6l-326.8-188.7a93.05,93.05,0,0,0-93,161.2L373.27,551A92.55,92.55,0,0,0,419.77,563.49Z"/><path class="cls-3" d="M744.77,563.49a91.92,91.92,0,0,0,46.4-12.5L1118,362.29,890.27,279l-192.1,110.9a93,93,0,0,0,46.6,173.6Z"/><path class="cls-4" d="M1071.47,374.79a93,93,0,0,0,46.6-173.6L791.27,12.49a93.05,93.05,0,0,0-93,161.2l326.8,188.7A92.82,92.82,0,0,0,1071.47,374.79Z"/><g class="cls-5"><g class="cls-5"><path class="cls-6" d="M263,788.79V681.39h32.85q24.6,0,39.52,14.85t14.93,38.85q0,24.17-14.93,38.93t-39.52,14.77Zm13.8-94.2v81h19q18.75,0,29.55-10.72t10.8-29.78q0-18.9-10.8-29.7t-29.55-10.8Z"/><path class="cls-6" d="M432.94,760.14q0,14.11-10.35,22.65t-25.5,8.4a37.64,37.64,0,0,1-23.55-7.8q-10.2-7.78-14.1-21.3l13.2-5.4a33.83,33.83,0,0,0,3.75,8.7,28.07,28.07,0,0,0,5.62,6.68,25.52,25.52,0,0,0,7.13,4.35,21.82,21.82,0,0,0,8.25,1.57q9.45,0,15.45-4.87a15.88,15.88,0,0,0,6-13,15.53,15.53,0,0,0-4.95-11.55q-4.65-4.64-17.4-9-12.9-4.64-16.05-6.3-17.1-8.68-17.1-25.65,0-11.83,9.45-20.25t23.55-8.4q12.3,0,21.3,6.3a29.57,29.57,0,0,1,12,15.45l-12.9,5.4a19.11,19.11,0,0,0-7.13-10,23,23,0,0,0-26.62.52,13.12,13.12,0,0,0-5.55,10.95,12.68,12.68,0,0,0,4.35,9.6q4.8,4.05,20.85,9.6Q419,732.41,426,740.42T432.94,760.14Z"/><path class="cls-6" d="M500.14,791.19q-23.85,0-39.9-16.05t-15.9-40q0-24,15.9-39.9,15.9-16.2,39.9-16.2,24.3,0,39.45,17.55l-9.9,9.6q-11.55-13.95-29.55-13.95-17.85,0-29.85,12t-11.85,30.9q0,19.06,11.85,30.9,12,12,29.85,12,18.75,0,32.55-15.75l10,9.75A52,52,0,0,1,524,786.17,57.15,57.15,0,0,1,500.14,791.19Z"/></g><g class="cls-5"><path class="cls-6" d="M570.57,745.36v43.43h-9V682.15h36.32q16.64,0,26.26,8.5T633.78,714q0,15-9.26,23.18t-26.85,8.17Zm0-7.62h27.32q13.11,0,20-6.23t6.88-17.39q0-11.07-6.84-17.64t-19.45-6.71H570.57Z"/><path class="cls-6" d="M712.81,737.67H662.93v43.51h57.35v7.61H653.92V682.15h66v7.62h-57v40.28h49.88Z"/><path class="cls-6" d="M799.6,762.57q0-8.85-6.22-14t-22.78-9.82q-16.56-4.65-24.17-10.14-10.84-7.77-10.84-20.36,0-12.24,10.07-19.89t25.74-7.65a42.78,42.78,0,0,1,19,4.1,31.07,31.07,0,0,1,13,11.43A30,30,0,0,1,808,712.55h-9.09q0-10.95-7.47-17.59t-20.07-6.65q-12.23,0-19.48,5.46A17.07,17.07,0,0,0,744.67,708a16.14,16.14,0,0,0,6.52,13.28q6.51,5.13,20.87,9.06t21.76,8.13A31.08,31.08,0,0,1,805,748.58a25.24,25.24,0,0,1,3.73,13.85,24.08,24.08,0,0,1-10.07,20.21q-10.07,7.62-26.55,7.62a52,52,0,0,1-20.69-4A31.56,31.56,0,0,1,737.09,775a29.07,29.07,0,0,1-4.87-16.62h9q0,11.28,8.42,17.79t22.41,6.52q12.45,0,20-5.49A17.17,17.17,0,0,0,799.6,762.57Z"/><path class="cls-6" d="M901.56,682.15V755a37,37,0,0,1-4.76,18.75A31.2,31.2,0,0,1,883.57,786,43,43,0,0,1,864,790.26q-16.85,0-27-9.19t-10.51-25.45V682.15h8.94V754.3q0,13.47,7.69,20.91T864,782.64q13.18,0,20.84-7.47t7.65-20.8V682.15Z"/></g></g></svg>