<?xml version="1.0" encoding="utf-8"?>
<!-- Generator: Adobe Illustrator 23.0.1, SVG Export Plug-In . SVG Version: 6.00 Build 0)  -->
<svg version="1.1" id="Layer_1" xmlns="http://www.w3.org/2000/svg" xmlns:xlink="http://www.w3.org/1999/xlink" x="0px" y="0px"
	 viewBox="0 0 3390 1276.2" style="enable-background:new 0 0 3390 1276.2;" xml:space="preserve">
<style type="text/css">
	.st0{fill:#EA4335;}
	.st1{fill:#4285F4;}
	.st2{fill:#FBBC04;}
	.st3{fill:#0F9D58;}
	.st4{fill:#676C72;}
</style>
<g>
	<g>
		<g>
			<path class="st0" d="M1390,317.6l189.1-109.2c44.5-25.7,59.8-82.6,34.1-127.1c-25.7-44.5-82.6-59.8-127.1-34.1l-326.8,188.7
				L1390,317.6z"/>
		</g>
		<g>
			<path class="st1" d="M1532.5,598.2c32.2,0,63.4-16.7,80.7-46.5c25.7-44.5,10.4-101.4-34.1-127.1l-326.8-188.7
				c-44.5-25.7-101.4-10.4-127.1,34.1c-25.7,44.5-10.4,101.4,34.1,127.1L1486,585.7C1500.7,594.2,1516.7,598.2,1532.5,598.2z"/>
		</g>
		<g>
			<path class="st2" d="M1857.5,598.2c15.8,0,31.8-4,46.4-12.5l326.8-188.7L2003,313.7l-192.1,110.9
				c-44.5,25.7-59.8,82.6-34.1,127.1C1794.1,581.5,1825.4,598.2,1857.5,598.2z"/>
		</g>
		<g>
			<path class="st3" d="M2184.2,409.5c32.2,0,63.4-16.7,80.7-46.5c25.7-44.5,10.4-101.4-34.1-127.1L1904,47.2
				c-44.5-25.7-101.4-10.5-127.1,34.1c-25.7,44.5-10.4,101.4,34.1,127.1l326.8,188.7C2152.4,405.5,2168.4,409.5,2184.2,409.5z"/>
		</g>
	</g>
</g>
<g>
	<path class="st4" d="M1375.3,806.1V698.7h32.9c16.4,0,29.6,5,39.5,14.9c9.9,9.9,14.9,22.9,14.9,38.8c0,16.1-5,29.1-14.9,38.9
		c-10,9.9-23.1,14.8-39.5,14.8H1375.3z M1389.1,711.9v81h19c12.5,0,22.4-3.6,29.6-10.7c7.2-7.1,10.8-17.1,10.8-29.8
		c0-12.6-3.6-22.5-10.8-29.7c-7.2-7.2-17.1-10.8-29.6-10.8H1389.1z"/>
	<path class="st4" d="M1545.2,777.5c0,9.4-3.5,17-10.4,22.7c-7,5.6-15.5,8.4-25.5,8.4c-8.9,0-16.8-2.6-23.5-7.8
		c-6.8-5.2-11.5-12.3-14.1-21.3l13.2-5.4c0.9,3.2,2.1,6.1,3.8,8.7c1.6,2.6,3.5,4.8,5.6,6.7c2.1,1.9,4.5,3.3,7.1,4.4
		c2.6,1,5.3,1.6,8.3,1.6c6.3,0,11.4-1.6,15.5-4.9c4-3.2,6-7.6,6-13c0-4.5-1.6-8.3-5-11.5c-3.1-3.1-8.9-6.1-17.4-9
		c-8.6-3.1-13.9-5.2-16-6.3c-11.4-5.8-17.1-14.3-17.1-25.7c0-7.9,3.1-14.6,9.5-20.3c6.4-5.6,14.3-8.4,23.5-8.4
		c8.2,0,15.3,2.1,21.3,6.3c6,4.1,10,9.3,12,15.5l-12.9,5.4c-1.2-4-3.6-7.3-7.1-10c-3.6-2.6-7.9-4-13-4c-5.4,0-10,1.5-13.6,4.5
		c-3.7,2.8-5.5,6.5-5.5,11c0,3.7,1.4,6.9,4.4,9.6c3.2,2.7,10.1,5.9,20.8,9.6c10.9,3.7,18.7,8.2,23.3,13.6
		C1542.9,763.1,1545.2,769.7,1545.2,777.5z"/>
	<path class="st4" d="M1612.4,808.5c-15.9,0-29.2-5.3-39.9-16.1c-10.6-10.7-15.9-24-15.9-40c0-16,5.3-29.3,15.9-39.9
		c10.6-10.8,23.9-16.2,39.9-16.2c16.2,0,29.3,5.8,39.4,17.5l-9.9,9.6c-7.7-9.3-17.5-14-29.5-14c-11.9,0-21.9,4-29.9,12
		c-7.9,7.9-11.9,18.2-11.9,30.9c0,12.7,3.9,23,11.9,30.9c8,8,17.9,12,29.9,12c12.5,0,23.3-5.3,32.5-15.8l10.1,9.8
		c-5.1,6.1-11.4,10.8-18.8,14.2C1628.9,806.8,1620.9,808.5,1612.4,808.5z"/>
	<path class="st4" d="M1682.9,762.7v43.4h-9V699.5h36.3c11.1,0,19.8,2.8,26.3,8.5c6.4,5.7,9.6,13.5,9.6,23.4c0,10-3.1,17.7-9.3,23.2
		c-6.2,5.4-15.1,8.2-26.8,8.2H1682.9z M1682.9,755.1h27.3c8.7,0,15.4-2.1,20-6.2c4.6-4.2,6.9-10,6.9-17.4c0-7.4-2.3-13.3-6.8-17.6
		c-4.6-4.4-11-6.6-19.4-6.7h-27.9V755.1z"/>
	<path class="st4" d="M1825.1,755h-49.9v43.5h57.3v7.6h-66.4V699.5h66v7.6h-57v40.3h49.9V755z"/>
	<path class="st4" d="M1911.9,779.9c0-5.9-2.1-10.6-6.2-14s-11.7-6.7-22.8-9.8c-11-3.1-19.1-6.5-24.2-10.1
		c-7.2-5.2-10.8-12-10.8-20.4c0-8.2,3.4-14.8,10.1-19.9c6.7-5.1,15.3-7.7,25.7-7.7c7.1,0,13.4,1.4,19,4.1c5.6,2.7,9.9,6.5,13,11.4
		c3.1,4.9,4.6,10.3,4.6,16.3h-9.1c0-7.3-2.5-13.2-7.5-17.6c-5-4.4-11.7-6.6-20.1-6.6c-8.2,0-14.6,1.8-19.5,5.5
		c-4.8,3.6-7.3,8.4-7.3,14.3c0,5.4,2.2,9.9,6.5,13.3c4.3,3.4,11.3,6.4,20.9,9.1c9.6,2.6,16.8,5.3,21.8,8.1
		c4.9,2.8,8.6,6.2,11.1,10.1c2.5,3.9,3.7,8.5,3.7,13.8c0,8.4-3.4,15.1-10.1,20.2c-6.7,5.1-15.6,7.6-26.6,7.6c-7.5,0-14.4-1.3-20.7-4
		c-6.3-2.7-11-6.4-14.3-11.3c-3.2-4.8-4.9-10.4-4.9-16.6h9c0,7.5,2.8,13.5,8.4,17.8c5.6,4.3,13.1,6.5,22.4,6.5c8.3,0,15-1.8,20-5.5
		S1911.9,785.9,1911.9,779.9z"/>
	<path class="st4" d="M2013.9,699.5v72.8c0,7.2-1.6,13.4-4.8,18.8c-3.1,5.3-7.5,9.4-13.2,12.3c-5.7,2.9-12.2,4.3-19.6,4.3
		c-11.2,0-20.2-3.1-27-9.2c-6.8-6.1-10.3-14.6-10.5-25.5v-73.5h8.9v72.1c0,9,2.6,16,7.7,20.9c5.1,5,12.1,7.4,20.9,7.4
		s15.7-2.5,20.8-7.5c5.1-5,7.7-11.9,7.7-20.8v-72.2H2013.9z"/>
</g>
</svg>
